<?xml version="1.0" encoding="UTF-8" standalone="no"?>
<svg
   xmlns:dc="http://purl.org/dc/elements/1.1/"
   xmlns:cc="http://creativecommons.org/ns#"
   xmlns:rdf="http://www.w3.org/1999/02/22-rdf-syntax-ns#"
   xmlns:svg="http://www.w3.org/2000/svg"
   xmlns="http://www.w3.org/2000/svg"
   id="emoji"
   viewBox="0 0 48 48"
   version="1.1"
   width="48"
   height="48">
  <metadata
     id="metadata41">
    <rdf:RDF>
      <cc:Work
         rdf:about="">
        <dc:format>image/svg+xml</dc:format>
        <dc:type
           rdf:resource="http://purl.org/dc/dcmitype/StillImage" />
        <dc:title></dc:title>
      </cc:Work>
    </rdf:RDF>
  </metadata>
  <defs
     id="defs39" />
  <g
     id="skin-shadow"
     transform="translate(0,-24)" />
  <g
     id="hair"
     transform="translate(-12,-4.5)">
    <path
       d="m 26,39 c -4,0 -4,-6 -4,-13 0,-7 4,-14 14,-14 10,0 14,7 14,14 0,7 0,13 -4,13"
       id="path16"
       style="fill:#f1b31c" />
  </g>
  <path
     style="fill:none;stroke:#000000;stroke-width:2;stroke-linecap:round;stroke-linejoin:round"
     id="path23"
     d="m 14,34.5 c -4,0 -4,-6 -4,-13 0,-7 4,-14 14,-14 10,0 14,7 14,14 0,7 0,13 -4,13" />
  <g
     id="skin">
    <path
       d="m 12.9365,26.5 c 0,9 4.9365,14 11,14 5.9365,0 11.0635,-5 11.0635,-14 0,-3 -1,-5.0005 -1,-5.0005 -3,-2.9995 -7,-8 -7,-8 -4,3 -7,6 -13,7.0005 0,0 -1.0635,0.9995 -1.0635,6 z"
       id="path19"
       style="fill:#fcea2b" />
    <path
       style="display:inline;fill:#fcea2b"
       id="path24"
       d="m 34.4886,21.4995 11.45,-1.6359 c 0,0 -6.2678,9.848799 -10.494,8.7989" />
    <path
       style="display:inline;fill:#fcea2b"
       id="path26"
       d="M 13.3789,21.4805 2.0614001,19.8634 c 0,0 6.1889,9.735099 10.3662999,8.6973" />
  </g>
  <path
     d="M 13.3789,21.4805 2.0614001,19.8634 c 0,0 6.1889,9.735099 10.3662999,8.6973"
     id="path48"
     style="fill:none;stroke:#000000;stroke-width:2;stroke-linecap:round;stroke-linejoin:round" />
  <path
     d="m 34.4886,21.4995 11.45,-1.6359 c 0,0 -6.2678,9.848799 -10.494,8.7989"
     id="path68"
     style="display:inline;fill:none;stroke:#000000;stroke-width:2;stroke-linecap:round;stroke-linejoin:round" />
  <path
     id="path27"
     d="m 29.873,25.5 c 0,1.1045 -0.8955,2 -2,2 -1.1044,0 -2,-0.8955 -2,-2 0,-1.1045 0.8956,-2 2,-2 1.1045,0 2,0.8955 2,2" />
  <path
     id="path29"
     d="m 21.873,25.5 c 0,1.1045 -0.8955,2 -2,2 -1.1044,0 -2,-0.8955 -2,-2 0,-1.1045 0.8956,-2 2,-2 1.1045,0 2,0.8955 2,2" />
  <path
     style="fill:none;stroke:#000000;stroke-width:2;stroke-linejoin:round"
     id="path31"
     d="m 12.9365,26.5 c 0,9 4.9365,14 11,14 5.9365,0 11.0635,-5 11.0635,-14 0,-3 -1,-5.0005 -1,-5.0005 -3,-2.9995 -7,-8 -7,-8 -4,3 -7,6 -13,7.0005 0,0 -1.0635,0.9995 -1.0635,6 z" />
  <path
     style="fill:none;stroke:#000000;stroke-width:2;stroke-linecap:round;stroke-linejoin:round"
     id="path36"
     d="m 22,34.199911 h 4" />
</svg>
